<svg width="1146" height="131" viewBox="0 0 1146 131" fill="none" xmlns="http://www.w3.org/2000/svg">
<mask id="path-1-outside-1_29_138" maskUnits="userSpaceOnUse" x="-1" y="-1" width="1148" height="133" fill="black">
<rect fill="white" x="-1" y="-1" width="1148" height="133"/>
<path d="M64.8 32V128H29.6V32H0.4V3H94V32H64.8ZM160.88 128H125.68V3H160.88V128ZM196.08 3H231.28V128H196.08V3ZM199.28 78.6H157.68V52.8H199.28V78.6ZM262.767 128L295.967 3H350.567L383.767 128H348.567L324.167 36.6H322.367L297.967 128H262.767ZM284.967 106.2V80.4H361.567V106.2H284.967ZM416.195 128V3H450.795L483.195 55C485.062 58.0667 486.329 60.6667 486.995 62.8C487.795 64.8 488.195 66.8 488.195 68.8H489.395V3H524.595V128H489.795L457.595 76C455.729 72.8 454.395 70.2 453.595 68.2C452.929 66.0667 452.595 64.0667 452.595 62.2H451.395V128H416.195ZM637.17 128L621.77 95C620.037 91.4 618.637 88.0667 617.57 85C616.504 81.9333 615.97 79.2 615.97 76.8H599.57V50.8H615.97C615.97 48.4 616.437 45.6667 617.37 42.6C618.437 39.5333 619.904 36.2 621.77 32.6L636.17 3H673.77L644.17 63.8L674.77 128H637.17ZM567.57 128V3H602.77V128H567.57ZM803.666 67L827.866 3H864.666L827.666 87.2V128H792.466V87.2L755.466 3H792.466L816.666 67H803.666ZM887.483 65.6C887.483 52.9333 888.416 42.4 890.283 34C892.149 25.4667 895.283 18.7333 899.683 13.8C904.083 8.86666 910.016 5.33333 917.483 3.2C924.949 1.06666 934.216 -9.05991e-06 945.283 -9.05991e-06C956.349 -9.05991e-06 965.616 1.06666 973.083 3.2C980.683 5.33333 986.616 8.86666 990.883 13.8C995.283 18.7333 998.416 25.4667 1000.28 34C1002.15 42.4 1003.08 52.9333 1003.08 65.6C1003.08 78.2667 1002.15 88.8 1000.28 97.2C998.416 105.6 995.283 112.267 990.883 117.2C986.616 122.133 980.683 125.667 973.083 127.8C965.616 129.933 956.349 131 945.283 131C934.216 131 924.949 129.933 917.483 127.8C910.016 125.667 904.083 122.133 899.683 117.2C895.283 112.267 892.149 105.6 890.283 97.2C888.416 88.8 887.483 78.2667 887.483 65.6ZM925.283 101H949.083C955.216 101 959.416 100.133 961.683 98.4C964.083 96.6667 965.283 93.6667 965.283 89.4V30H941.283C935.283 30 931.083 30.8667 928.683 32.6C926.416 34.3333 925.283 37.3333 925.283 41.6V101ZM1092.14 131C1081.48 131 1072.68 130.267 1065.74 128.8C1058.81 127.333 1053.34 124.867 1049.34 121.4C1045.48 117.933 1042.74 113.133 1041.14 107C1039.54 100.733 1038.74 92.8667 1038.74 83.4V3H1073.94V101H1092.94C1097.74 101 1101.41 100.733 1103.94 100.2C1106.48 99.5333 1108.21 98.4667 1109.14 97C1110.08 95.4 1110.54 93.2 1110.54 90.4V3H1145.74V83.4C1145.74 92.7333 1144.94 100.533 1143.34 106.8C1141.74 112.933 1138.94 117.8 1134.94 121.4C1130.94 124.867 1125.48 127.333 1118.54 128.8C1111.61 130.267 1102.81 131 1092.14 131Z"/>
</mask>
<path d="M64.8 32V31H63.8V32H64.8ZM64.8 128V129H65.8V128H64.8ZM29.6 128H28.6V129H29.6V128ZM29.6 32H30.6V31H29.6V32ZM0.4 32H-0.6V33H0.4V32ZM0.4 3V2H-0.6V3H0.4ZM94 3H95V2H94V3ZM94 32V33H95V32H94ZM63.8 32V128H65.8V32H63.8ZM64.8 127H29.6V129H64.8V127ZM30.6 128V32H28.6V128H30.6ZM29.6 31H0.4V33H29.6V31ZM1.4 32V3H-0.6V32H1.4ZM0.4 4H94V2H0.4V4ZM93 3V32H95V3H93ZM94 31H64.8V33H94V31ZM160.88 128V129H161.88V128H160.88ZM125.68 128H124.68V129H125.68V128ZM125.68 3V2H124.68V3H125.68ZM160.88 3H161.88V2H160.88V3ZM196.08 3V2H195.08V3H196.08ZM231.28 3H232.28V2H231.28V3ZM231.28 128V129H232.28V128H231.28ZM196.08 128H195.08V129H196.08V128ZM199.28 78.6V79.6H200.28V78.6H199.28ZM157.68 78.6H156.68V79.6H157.68V78.6ZM157.68 52.8V51.8H156.68V52.8H157.68ZM199.28 52.8H200.28V51.8H199.28V52.8ZM160.88 127H125.68V129H160.88V127ZM126.68 128V3H124.68V128H126.68ZM125.68 4H160.88V2H125.68V4ZM159.88 3V128H161.88V3H159.88ZM196.08 4H231.28V2H196.08V4ZM230.28 3V128H232.28V3H230.28ZM231.28 127H196.08V129H231.28V127ZM197.08 128V3H195.08V128H197.08ZM199.28 77.6H157.68V79.6H199.28V77.6ZM158.68 78.6V52.8H156.68V78.6H158.68ZM157.68 53.8H199.28V51.8H157.68V53.8ZM198.28 52.8V78.6H200.28V52.8H198.28ZM262.767 128L261.801 127.743L261.467 129H262.767V128ZM295.967 3V2H295.198L295.001 2.7433L295.967 3ZM350.567 3L351.534 2.7433L351.336 2H350.567V3ZM383.767 128V129H385.067L384.734 127.743L383.767 128ZM348.567 128L347.601 128.258L347.799 129H348.567V128ZM324.167 36.6L325.133 36.3421L324.935 35.6H324.167V36.6ZM322.367 36.6V35.6H321.599L321.401 36.3421L322.367 36.6ZM297.967 128V129H298.735L298.933 128.258L297.967 128ZM284.967 106.2H283.967V107.2H284.967V106.2ZM284.967 80.4V79.4H283.967V80.4H284.967ZM361.567 80.4H362.567V79.4H361.567V80.4ZM361.567 106.2V107.2H362.567V106.2H361.567ZM263.734 128.257L296.934 3.2567L295.001 2.7433L261.801 127.743L263.734 128.257ZM295.967 4H350.567V2H295.967V4ZM349.601 3.2567L382.801 128.257L384.734 127.743L351.534 2.7433L349.601 3.2567ZM383.767 127H348.567V129H383.767V127ZM349.533 127.742L325.133 36.3421L323.201 36.8579L347.601 128.258L349.533 127.742ZM324.167 35.6H322.367V37.6H324.167V35.6ZM321.401 36.3421L297.001 127.742L298.933 128.258L323.333 36.8579L321.401 36.3421ZM297.967 127H262.767V129H297.967V127ZM285.967 106.2V80.4H283.967V106.2H285.967ZM284.967 81.4H361.567V79.4H284.967V81.4ZM360.567 80.4V106.2H362.567V80.4H360.567ZM361.567 105.2H284.967V107.2H361.567V105.2ZM416.195 128H415.195V129H416.195V128ZM416.195 3V2H415.195V3H416.195ZM450.795 3L451.644 2.47118L451.35 2H450.795V3ZM483.195 55L484.05 54.48L484.044 54.4712L483.195 55ZM486.995 62.8L486.041 63.0983L486.052 63.1353L486.067 63.1714L486.995 62.8ZM488.195 68.8H487.195V69.8H488.195V68.8ZM489.395 68.8V69.8H490.395V68.8H489.395ZM489.395 3V2H488.395V3H489.395ZM524.595 3H525.595V2H524.595V3ZM524.595 128V129H525.595V128H524.595ZM489.795 128L488.945 128.526L489.238 129H489.795V128ZM457.595 76L456.732 76.5039L456.738 76.5153L456.745 76.5265L457.595 76ZM453.595 68.2L452.641 68.4983L452.652 68.5353L452.667 68.5714L453.595 68.2ZM452.595 62.2H453.595V61.2H452.595V62.2ZM451.395 62.2V61.2H450.395V62.2H451.395ZM451.395 128V129H452.395V128H451.395ZM417.195 128V3H415.195V128H417.195ZM416.195 4H450.795V2H416.195V4ZM449.947 3.52882L482.347 55.5288L484.044 54.4712L451.644 2.47118L449.947 3.52882ZM482.341 55.5199C484.188 58.5536 485.409 61.0749 486.041 63.0983L487.95 62.5017C487.249 60.2584 485.936 57.5797 484.049 54.4801L482.341 55.5199ZM486.067 63.1714C486.823 65.0624 487.195 66.9367 487.195 68.8H489.195C489.195 66.6633 488.767 64.5376 487.924 62.4286L486.067 63.1714ZM488.195 69.8H489.395V67.8H488.195V69.8ZM490.395 68.8V3H488.395V68.8H490.395ZM489.395 4H524.595V2H489.395V4ZM523.595 3V128H525.595V3H523.595ZM524.595 127H489.795V129H524.595V127ZM490.646 127.474L458.446 75.4735L456.745 76.5265L488.945 128.526L490.646 127.474ZM458.459 75.4961C456.602 72.3131 455.297 69.7618 454.524 67.8286L452.667 68.5714C453.494 70.6382 454.855 73.2869 456.732 76.5039L458.459 75.4961ZM454.55 67.9017C453.908 65.8465 453.595 63.9478 453.595 62.2H451.595C451.595 64.1855 451.95 66.2868 452.641 68.4983L454.55 67.9017ZM452.595 61.2H451.395V63.2H452.595V61.2ZM450.395 62.2V128H452.395V62.2H450.395ZM451.395 127H416.195V129H451.395V127ZM637.17 128L636.264 128.423L636.533 129H637.17V128ZM621.77 95L622.677 94.5771L622.671 94.5662L621.77 95ZM617.57 85L616.626 85.3285L617.57 85ZM615.97 76.8H616.97V75.8H615.97V76.8ZM599.57 76.8H598.57V77.8H599.57V76.8ZM599.57 50.8V49.8H598.57V50.8H599.57ZM615.97 50.8V51.8H616.97V50.8H615.97ZM617.37 42.6L616.426 42.2715L616.419 42.29L616.414 42.3088L617.37 42.6ZM621.77 32.6L622.658 33.0603L622.664 33.049L622.67 33.0375L621.77 32.6ZM636.17 3V2H635.545L635.271 2.56253L636.17 3ZM673.77 3L674.669 3.43772L675.369 2H673.77V3ZM644.17 63.8L643.271 63.3623L643.06 63.7954L643.268 64.2303L644.17 63.8ZM674.77 128V129H676.355L675.673 127.57L674.77 128ZM567.57 128H566.57V129H567.57V128ZM567.57 3V2H566.57V3H567.57ZM602.77 3H603.77V2H602.77V3ZM602.77 128V129H603.77V128H602.77ZM638.076 127.577L622.677 94.5771L620.864 95.4229L636.264 128.423L638.076 127.577ZM622.671 94.5662C620.951 90.993 619.567 87.6952 618.515 84.6715L616.626 85.3285C617.707 88.4381 619.123 91.807 620.869 95.4338L622.671 94.5662ZM618.515 84.6715C617.473 81.6757 616.97 79.0565 616.97 76.8H614.97C614.97 79.3435 615.534 82.191 616.626 85.3285L618.515 84.6715ZM615.97 75.8H599.57V77.8H615.97V75.8ZM600.57 76.8V50.8H598.57V76.8H600.57ZM599.57 51.8H615.97V49.8H599.57V51.8ZM616.97 50.8C616.97 48.5254 617.413 45.893 618.327 42.8912L616.414 42.3088C615.461 45.4403 614.97 48.2746 614.97 50.8H616.97ZM618.315 42.9285C619.362 39.9166 620.808 36.6278 622.658 33.0603L620.883 32.1397C618.999 35.7722 617.512 39.1501 616.426 42.2715L618.315 42.9285ZM622.67 33.0375L637.07 3.43747L635.271 2.56253L620.871 32.1625L622.67 33.0375ZM636.17 4H673.77V2H636.17V4ZM672.871 2.56228L643.271 63.3623L645.069 64.2377L674.669 3.43772L672.871 2.56228ZM643.268 64.2303L673.868 128.43L675.673 127.57L645.073 63.3697L643.268 64.2303ZM674.77 127H637.17V129H674.77V127ZM568.57 128V3H566.57V128H568.57ZM567.57 4H602.77V2H567.57V4ZM601.77 3V128H603.77V3H601.77ZM602.77 127H567.57V129H602.77V127ZM803.666 67L802.73 66.6463L802.218 68H803.666V67ZM827.866 3V2H827.175L826.93 2.64632L827.866 3ZM864.666 3L865.581 3.4023L866.197 2H864.666V3ZM827.666 87.2L826.75 86.7977L826.666 86.99V87.2H827.666ZM827.666 128V129H828.666V128H827.666ZM792.466 128H791.466V129H792.466V128ZM792.466 87.2H793.466V86.99L793.381 86.7977L792.466 87.2ZM755.466 3V2H753.934L754.55 3.4023L755.466 3ZM792.466 3L793.401 2.64632L793.157 2H792.466V3ZM816.666 67V68H818.113L817.601 66.6463L816.666 67ZM804.601 67.3537L828.801 3.35368L826.93 2.64632L802.73 66.6463L804.601 67.3537ZM827.866 4H864.666V2H827.866V4ZM863.75 2.5977L826.75 86.7977L828.581 87.6023L865.581 3.4023L863.75 2.5977ZM826.666 87.2V128H828.666V87.2H826.666ZM827.666 127H792.466V129H827.666V127ZM793.466 128V87.2H791.466V128H793.466ZM793.381 86.7977L756.381 2.5977L754.55 3.4023L791.55 87.6023L793.381 86.7977ZM755.466 4H792.466V2H755.466V4ZM791.53 3.35368L815.73 67.3537L817.601 66.6463L793.401 2.64632L791.53 3.35368ZM816.666 66H803.666V68H816.666V66ZM890.283 34L891.259 34.2169L891.26 34.2137L890.283 34ZM899.683 13.8L900.429 14.4656L899.683 13.8ZM917.483 3.2L917.758 4.16152L917.483 3.2ZM973.083 3.2L972.808 4.16153L972.813 4.16279L973.083 3.2ZM990.883 13.8L990.126 14.4541L990.131 14.4599L990.137 14.4656L990.883 13.8ZM1000.28 34L999.306 34.2137L999.307 34.2169L1000.28 34ZM1000.28 97.2L1001.26 97.4169L1000.28 97.2ZM990.883 117.2L990.137 116.534L990.131 116.54L990.126 116.546L990.883 117.2ZM973.083 127.8L972.813 126.837L972.808 126.838L973.083 127.8ZM917.483 127.8L917.208 128.762L917.483 127.8ZM899.683 117.2L900.429 116.534L899.683 117.2ZM890.283 97.2L891.259 96.9831L890.283 97.2ZM925.283 101H924.283V102H925.283V101ZM961.683 98.4L961.097 97.5893L961.086 97.5973L961.075 97.6056L961.683 98.4ZM965.283 30H966.283V29H965.283V30ZM928.683 32.6L928.097 31.7893L928.086 31.7973L928.075 31.8056L928.683 32.6ZM888.483 65.6C888.483 52.9755 889.414 42.5209 891.259 34.2169L889.307 33.7831C887.419 42.2791 886.483 52.8912 886.483 65.6H888.483ZM891.26 34.2137C893.101 25.7961 896.175 19.2359 900.429 14.4656L898.937 13.1344C894.391 18.2308 891.198 25.1373 889.306 33.7863L891.26 34.2137ZM900.429 14.4656C904.682 9.69671 910.441 6.25208 917.758 4.16152L917.208 2.23847C909.592 4.41458 903.483 8.03661 898.937 13.1344L900.429 14.4656ZM917.758 4.16152C925.106 2.06199 934.273 0.999992 945.283 0.999992V-1.00001C934.159 -1.00001 924.793 0.0713272 917.208 2.23847L917.758 4.16152ZM945.283 0.999992C956.292 0.999992 965.46 2.06199 972.808 4.16152L973.358 2.23847C965.773 0.0713272 956.406 -1.00001 945.283 -1.00001V0.999992ZM972.813 4.16279C980.264 6.25439 986.013 9.69779 990.126 14.4541L991.639 13.1458C987.219 8.03552 981.102 4.41226 973.353 2.23721L972.813 4.16279ZM990.137 14.4656C994.391 19.2359 997.465 25.7961 999.306 34.2137L1001.26 33.7863C999.368 25.1373 996.175 18.2308 991.629 13.1344L990.137 14.4656ZM999.307 34.2169C1001.15 42.5209 1002.08 52.9755 1002.08 65.6H1004.08C1004.08 52.8912 1003.15 42.2791 1001.26 33.7831L999.307 34.2169ZM1002.08 65.6C1002.08 78.2245 1001.15 88.6791 999.307 96.9831L1001.26 97.4169C1003.15 88.9209 1004.08 78.3088 1004.08 65.6H1002.08ZM999.307 96.9831C997.466 105.265 994.394 111.761 990.137 116.534L991.629 117.866C996.172 112.772 999.366 105.935 1001.26 97.4169L999.307 96.9831ZM990.126 116.546C986.013 121.302 980.264 124.746 972.813 126.837L973.353 128.763C981.102 126.588 987.219 122.964 991.639 117.854L990.126 116.546ZM972.808 126.838C965.46 128.938 956.292 130 945.283 130V132C956.406 132 965.773 130.929 973.358 128.762L972.808 126.838ZM945.283 130C934.273 130 925.106 128.938 917.758 126.838L917.208 128.762C924.793 130.929 934.159 132 945.283 132V130ZM917.758 126.838C910.441 124.748 904.682 121.303 900.429 116.534L898.937 117.866C903.483 122.963 909.592 126.585 917.208 128.762L917.758 126.838ZM900.429 116.534C896.172 111.761 893.099 105.265 891.259 96.9831L889.307 97.4169C891.199 105.935 894.394 112.772 898.937 117.866L900.429 116.534ZM891.259 96.9831C889.414 88.6791 888.483 78.2245 888.483 65.6H886.483C886.483 78.3088 887.419 88.9209 889.307 97.4169L891.259 96.9831ZM925.283 102H949.083V100H925.283V102ZM949.083 102C952.191 102 954.847 101.781 957.035 101.329C959.215 100.88 960.993 100.187 962.29 99.1944L961.075 97.6056C960.106 98.3466 958.651 98.9538 956.631 99.3706C954.619 99.7858 952.108 100 949.083 100V102ZM962.268 99.2107C965.03 97.2159 966.283 93.8375 966.283 89.4H964.283C964.283 93.4958 963.135 96.1174 961.097 97.5893L962.268 99.2107ZM966.283 89.4V30H964.283V89.4H966.283ZM965.283 29H941.283V31H965.283V29ZM941.283 29C935.251 29 930.771 29.8586 928.097 31.7893L929.268 33.4107C931.395 31.8747 935.314 31 941.283 31V29ZM928.075 31.8056C925.457 33.8076 924.283 37.1814 924.283 41.6H926.283C926.283 37.4852 927.375 34.859 929.29 33.3943L928.075 31.8056ZM924.283 41.6V101H926.283V41.6H924.283ZM1065.74 128.8L1065.54 129.778L1065.74 128.8ZM1049.34 121.4L1048.67 122.145L1048.68 122.15L1048.69 122.156L1049.34 121.4ZM1041.14 107L1040.17 107.247L1040.17 107.252L1041.14 107ZM1038.74 3V2H1037.74V3H1038.74ZM1073.94 3H1074.94V2H1073.94V3ZM1073.94 101H1072.94V102H1073.94V101ZM1103.94 100.2L1104.15 101.179L1104.17 101.173L1104.2 101.167L1103.94 100.2ZM1109.14 97L1109.99 97.5369L1110 97.5206L1110.01 97.5039L1109.14 97ZM1110.54 3V2H1109.54V3H1110.54ZM1145.74 3H1146.74V2H1145.74V3ZM1143.34 106.8L1144.31 107.052L1144.31 107.047L1143.34 106.8ZM1134.94 121.4L1135.6 122.156L1135.6 122.15L1135.61 122.143L1134.94 121.4ZM1092.14 130C1081.51 130 1072.79 129.269 1065.95 127.822L1065.54 129.778C1072.56 131.265 1081.44 132 1092.14 132V130ZM1065.95 127.822C1059.13 126.379 1053.83 123.969 1050 120.644L1048.69 122.156C1052.85 125.765 1058.49 128.288 1065.54 129.778L1065.95 127.822ZM1050.01 120.655C1046.32 117.346 1043.67 112.733 1042.11 106.748L1040.17 107.252C1041.81 113.533 1044.63 118.52 1048.67 122.145L1050.01 120.655ZM1042.11 106.753C1040.54 100.595 1039.74 92.818 1039.74 83.4H1037.74C1037.74 92.9153 1038.55 100.872 1040.17 107.247L1042.11 106.753ZM1039.74 83.4V3H1037.74V83.4H1039.74ZM1038.74 4H1073.94V2H1038.74V4ZM1072.94 3V101H1074.94V3H1072.94ZM1073.94 102H1092.94V100H1073.94V102ZM1092.94 102C1097.76 102 1101.51 101.733 1104.15 101.179L1103.74 99.2215C1101.31 99.7332 1097.72 100 1092.94 100V102ZM1104.2 101.167C1106.85 100.468 1108.86 99.3018 1109.99 97.5369L1108.3 96.4631C1107.55 97.6315 1106.1 98.5987 1103.69 99.2329L1104.2 101.167ZM1110.01 97.5039C1111.06 95.692 1111.54 93.2934 1111.54 90.4H1109.54C1109.54 93.1066 1109.09 95.108 1108.28 96.4961L1110.01 97.5039ZM1111.54 90.4V3H1109.54V90.4H1111.54ZM1110.54 4H1145.74V2H1110.54V4ZM1144.74 3V83.4H1146.74V3H1144.74ZM1144.74 83.4C1144.74 92.6833 1143.95 100.394 1142.37 106.553L1144.31 107.047C1145.94 100.673 1146.74 92.7834 1146.74 83.4H1144.74ZM1142.37 106.548C1140.82 112.526 1138.1 117.209 1134.27 120.657L1135.61 122.143C1139.78 118.391 1142.67 113.341 1144.31 107.052L1142.37 106.548ZM1134.29 120.644C1130.45 123.969 1125.16 126.379 1118.34 127.822L1118.75 129.778C1125.79 128.288 1131.43 125.765 1135.6 122.156L1134.29 120.644ZM1118.34 127.822C1111.49 129.269 1102.77 130 1092.14 130V132C1102.85 132 1111.72 131.265 1118.75 129.778L1118.34 127.822Z" fill="white" fill-opacity="0.6" mask="url(#path-1-outside-1_29_138)"/>
</svg>
