<svg width="478" height="80" viewBox="0 0 478 80" fill="none" xmlns="http://www.w3.org/2000/svg">
<path d="M64.6942 79.5L1.02129 -2.5H477.066L422.413 79.5H64.6942Z" fill="url(#paint0_linear_55_2)" stroke="url(#paint1_linear_55_2)"/>
<path d="M89.6 44.08V51.68H100.6V55H85.6V30H100.48L100 33.32H89.6V40.92H99.08V44.08H89.6ZM106.386 55V30H110.266L119.946 45.6C120.346 46.2667 120.613 46.7467 120.746 47.04C120.879 47.3067 120.959 47.6533 120.986 48.08H121.226V30H125.226V55H121.346L111.666 39.4C111.266 38.7333 110.999 38.2667 110.866 38C110.759 37.7067 110.679 37.3467 110.626 36.92H110.386V55H106.386ZM140.151 55.6C138.418 55.6 136.991 55.4267 135.871 55.08C134.751 54.7333 133.885 54.1067 133.271 53.2C132.658 52.2667 132.231 50.9467 131.991 49.24C131.751 47.5067 131.631 45.2667 131.631 42.52C131.631 39.9067 131.765 37.76 132.031 36.08C132.325 34.3733 132.831 33.04 133.551 32.08C134.271 31.0933 135.258 30.4 136.511 30C137.791 29.6 139.431 29.4 141.431 29.4C142.098 29.4 142.845 29.44 143.671 29.52C144.525 29.5733 145.365 29.6667 146.191 29.8C147.018 29.9067 147.711 30.0533 148.271 30.24L147.751 33.52C146.978 33.36 146.125 33.2267 145.191 33.12C144.258 33.0133 143.365 32.9333 142.511 32.88C141.658 32.8267 140.965 32.8 140.431 32.8C138.831 32.8 137.671 32.9867 136.951 33.36C136.231 33.7067 135.871 34.5333 135.871 35.84V52.4H148.711L149.231 54.2C147.925 54.7067 146.551 55.0667 145.111 55.28C143.698 55.4933 142.045 55.6 140.151 55.6ZM145.671 53.8V44.4H141.871V41.24H149.231V54.2L145.671 53.8ZM155.444 30H159.444V55H155.444V30ZM166.855 55V30H170.735L180.415 45.6C180.815 46.2667 181.081 46.7467 181.215 47.04C181.348 47.3067 181.428 47.6533 181.455 48.08H181.695V30H185.695V55H181.815L172.135 39.4C171.735 38.7333 171.468 38.2667 171.335 38C171.228 37.7067 171.148 37.3467 171.095 36.92H170.855V55H166.855ZM197.1 44.08V51.68H208.1V55H193.1V30H207.98L207.5 33.32H197.1V40.92H206.58V44.08H197.1ZM217.686 44.08V51.68H228.686V55H213.686V30H228.566L228.086 33.32H217.686V40.92H227.166V44.08H217.686ZM238.272 46.16V55H234.272V30H244.272C246.032 30 247.419 30.2667 248.432 30.8C249.445 31.3333 250.165 32.2133 250.592 33.44C251.045 34.6667 251.272 36.3333 251.272 38.44C251.272 41.1867 250.779 43.16 249.792 44.36C248.805 45.56 247.165 46.16 244.872 46.16H238.272ZM238.272 43H244.312C245.352 43 246.072 42.88 246.472 42.64C246.872 42.4 247.072 41.96 247.072 41.32V35C247.072 34.36 246.872 33.92 246.472 33.68C246.072 33.44 245.352 33.32 244.312 33.32H238.272V43ZM247.272 44.28L252.472 55H248.112L243.392 45L247.272 44.28ZM256.315 51.36C257.382 51.6267 258.622 51.8533 260.035 52.04C261.475 52.2 262.848 52.28 264.155 52.28C264.822 52.28 265.475 52.2667 266.115 52.24C266.782 52.2133 267.635 52.1467 268.675 52.04V44.6L264.875 44.32C263.088 44.1867 261.622 43.9867 260.475 43.72C259.328 43.4267 258.422 43.0267 257.755 42.52C257.115 41.9867 256.662 41.2933 256.395 40.44C256.155 39.5867 256.035 38.5067 256.035 37.2C256.035 35.28 256.275 33.76 256.755 32.64C257.262 31.4933 258.075 30.6667 259.195 30.16C260.315 29.6533 261.795 29.4 263.635 29.4C265.022 29.4 266.368 29.4667 267.675 29.6C268.982 29.7067 270.328 29.8933 271.715 30.16L271.195 33.32C270.022 33.1067 268.862 32.96 267.715 32.88C266.568 32.7733 265.288 32.72 263.875 32.72C263.102 32.72 262.475 32.7333 261.995 32.76C261.515 32.7867 260.982 32.84 260.395 32.92V40.44L264.835 40.72C266.942 40.8533 268.582 41.1733 269.755 41.68C270.955 42.16 271.795 42.92 272.275 43.96C272.782 45 273.035 46.4133 273.035 48.2C273.035 50.04 272.742 51.5067 272.155 52.6C271.568 53.6667 270.595 54.44 269.235 54.92C267.902 55.3733 266.088 55.6 263.795 55.6C262.382 55.6 261.022 55.52 259.715 55.36C258.408 55.2267 257.075 54.9867 255.715 54.64L256.315 51.36ZM288.417 55V30H292.297L301.977 45.6C302.377 46.2667 302.644 46.7467 302.777 47.04C302.911 47.3067 302.991 47.6533 303.017 48.08H303.257V30H307.257V55H303.377L293.697 39.4C293.297 38.7333 293.031 38.2667 292.897 38C292.791 37.7067 292.711 37.3467 292.657 36.92H292.417V55H288.417ZM313.663 42.52C313.663 39.8 313.796 37.5867 314.063 35.88C314.356 34.1467 314.863 32.8133 315.583 31.88C316.303 30.9467 317.316 30.3067 318.623 29.96C319.956 29.5867 321.676 29.4 323.783 29.4C325.863 29.4 327.569 29.5867 328.903 29.96C330.236 30.3067 331.263 30.96 331.983 31.92C332.703 32.8533 333.196 34.1733 333.463 35.88C333.756 37.5867 333.903 39.8 333.903 42.52C333.903 45.24 333.756 47.4533 333.463 49.16C333.196 50.8667 332.703 52.1867 331.983 53.12C331.263 54.0533 330.236 54.6933 328.903 55.04C327.569 55.4133 325.863 55.6 323.783 55.6C321.676 55.6 319.956 55.4133 318.623 55.04C317.316 54.6933 316.303 54.0533 315.583 53.12C314.863 52.1867 314.356 50.8667 314.063 49.16C313.796 47.4533 313.663 45.24 313.663 42.52ZM317.943 52.2H326.183C327.463 52.2 328.356 51.9867 328.863 51.56C329.369 51.1333 329.623 50.3733 329.623 49.28V32.8H321.342C320.063 32.8 319.169 33.0133 318.663 33.44C318.183 33.8667 317.943 34.6267 317.943 35.72V52.2ZM346.911 33.32V55H342.911V33.32H336.311V30H353.511V33.32H346.911ZM361.709 44.08V51.68H372.709V55H357.709V30H372.589L372.109 33.32H361.709V40.92H371.189V44.08H361.709ZM377.135 51.36C378.202 51.6267 379.442 51.8533 380.855 52.04C382.295 52.2 383.669 52.28 384.975 52.28C385.642 52.28 386.295 52.2667 386.935 52.24C387.602 52.2133 388.455 52.1467 389.495 52.04V44.6L385.695 44.32C383.909 44.1867 382.442 43.9867 381.295 43.72C380.149 43.4267 379.242 43.0267 378.575 42.52C377.935 41.9867 377.482 41.2933 377.215 40.44C376.975 39.5867 376.855 38.5067 376.855 37.2C376.855 35.28 377.095 33.76 377.575 32.64C378.082 31.4933 378.895 30.6667 380.015 30.16C381.135 29.6533 382.615 29.4 384.455 29.4C385.842 29.4 387.189 29.4667 388.495 29.6C389.802 29.7067 391.149 29.8933 392.535 30.16L392.015 33.32C390.842 33.1067 389.682 32.96 388.535 32.88C387.389 32.7733 386.109 32.72 384.695 32.72C383.922 32.72 383.295 32.7333 382.815 32.76C382.335 32.7867 381.802 32.84 381.215 32.92V40.44L385.655 40.72C387.762 40.8533 389.402 41.1733 390.575 41.68C391.775 42.16 392.615 42.92 393.095 43.96C393.602 45 393.855 46.4133 393.855 48.2C393.855 50.04 393.562 51.5067 392.975 52.6C392.389 53.6667 391.415 54.44 390.055 54.92C388.722 55.3733 386.909 55.6 384.615 55.6C383.202 55.6 381.842 55.52 380.535 55.36C379.229 55.2267 377.895 54.9867 376.535 54.64L377.135 51.36Z" fill="#FDFDFD"/>
<defs>
<linearGradient id="paint0_linear_55_2" x1="238.463" y1="158.527" x2="238.463" y2="-57.1737" gradientUnits="userSpaceOnUse">
<stop stop-color="#5300BC"/>
<stop offset="1"/>
</linearGradient>
<linearGradient id="paint1_linear_55_2" x1="244.908" y1="-3" x2="246.288" y2="109.823" gradientUnits="userSpaceOnUse">
<stop stop-color="white" stop-opacity="0"/>
<stop offset="1" stop-color="#F0F0F0"/>
</linearGradient>
</defs>
</svg>
